<svg width="175" height="27" viewBox="0 0 175 27" fill="none" xmlns="http://www.w3.org/2000/svg">
<path d="M29.0049 21.0216L24.1915 26.1827C24.0874 26.2948 23.9613 26.3843 23.8211 26.4455C23.6809 26.5067 23.5296 26.5384 23.3766 26.5386H0.559254C0.450427 26.5385 0.343979 26.5067 0.252945 26.4471C0.161911 26.3874 0.0902414 26.3026 0.0467121 26.2028C0.00318287 26.1031 -0.0103169 25.9928 0.0078659 25.8855C0.0260487 25.7782 0.0751248 25.6785 0.149085 25.5987L4.95703 20.4376C5.06116 20.3256 5.18725 20.2361 5.32745 20.1749C5.46765 20.1137 5.61895 20.082 5.77194 20.0818H28.5893C28.6991 20.0795 28.8072 20.1098 28.8998 20.1688C28.9925 20.2278 29.0657 20.3129 29.1101 20.4133C29.1545 20.5138 29.1682 20.6251 29.1495 20.7334C29.1308 20.8416 29.0805 20.9419 29.0049 21.0216ZM24.1915 10.6262C24.087 10.5146 23.9609 10.4255 23.8207 10.3643C23.6806 10.3031 23.5295 10.2711 23.3766 10.2703H0.559254C0.450427 10.2704 0.343979 10.3022 0.252945 10.3618C0.161911 10.4214 0.0902414 10.5063 0.0467121 10.6061C0.00318287 10.7058 -0.0103169 10.8161 0.0078659 10.9234C0.0260487 11.0307 0.0751248 11.1303 0.149085 11.2102L4.95703 16.374C5.06154 16.4856 5.18771 16.5747 5.32782 16.6358C5.46793 16.697 5.61905 16.729 5.77194 16.7298H28.5893C28.6979 16.7292 28.804 16.697 28.8946 16.6372C28.9852 16.5774 29.0565 16.4925 29.0997 16.3928C29.1429 16.2932 29.1561 16.1831 29.1379 16.0761C29.1196 15.969 29.0706 15.8696 28.9968 15.7899L24.1915 10.6262ZM0.559254 6.91833H23.3766C23.5296 6.91821 23.6809 6.88654 23.8211 6.82532C23.9614 6.76409 24.0874 6.67462 24.1915 6.56249L29.0049 1.40142C29.0613 1.34177 29.1039 1.27039 29.1295 1.19239C29.1551 1.11439 29.1632 1.03169 29.1532 0.950199C29.1431 0.868709 29.1152 0.790445 29.0714 0.721001C29.0276 0.651556 28.969 0.592647 28.8998 0.548484C28.8071 0.489527 28.6991 0.459284 28.5893 0.461561H5.77194C5.61895 0.461722 5.46763 0.493401 5.32743 0.554624C5.18722 0.615847 5.06114 0.705299 4.95703 0.817403L0.149085 5.97848C0.0751248 6.05831 0.0260487 6.15798 0.0078659 6.26527C-0.0103169 6.37257 0.00318287 6.48284 0.0467121 6.58258C0.0902414 6.68233 0.161911 6.76721 0.252945 6.82685C0.343979 6.88648 0.450427 6.91827 0.559254 6.91833Z" fill="url(#paint0_linear_679_330)"/>
<path d="M56.8224 11.4895H44.6151V7.46925H59.9951V3.44905H44.5744C44.0475 3.44612 43.5252 3.54702 43.0373 3.74598C42.5494 3.94494 42.1055 4.23806 41.7309 4.60861C41.3563 4.97916 41.0584 5.41988 40.8542 5.90559C40.6499 6.3913 40.5434 6.91248 40.5406 7.43938V11.5139C40.5427 12.0413 40.6487 12.563 40.8526 13.0494C41.0565 13.5357 41.3543 13.9771 41.729 14.3482C42.1037 14.7193 42.5478 15.0129 43.0361 15.2122C43.5243 15.4115 44.0471 15.5126 44.5744 15.5097H56.798V19.5299H40.8313V23.5501H56.8224C57.616 23.5545 58.393 23.3235 59.0552 22.8862C59.7174 22.4488 60.2349 21.8249 60.5424 21.0934C60.7468 20.6078 60.8534 20.0866 60.8562 19.5597V15.4852C60.8541 14.9579 60.748 14.4361 60.5441 13.9498C60.3402 13.4635 60.0424 13.0221 59.6677 12.651C59.2931 12.2799 58.8489 11.9863 58.3607 11.787C57.8725 11.5877 57.3497 11.4866 56.8224 11.4895ZM80.4709 3.44905H68.2175C67.4226 3.44272 66.6438 3.6726 65.9797 4.10954C65.3157 4.54647 64.7964 5.17078 64.4877 5.90328C64.2826 6.38958 64.1756 6.91161 64.1728 7.43938V19.5597C64.1756 20.0875 64.2826 20.6096 64.4877 21.0961C64.7963 21.8286 65.3157 22.4529 65.9797 22.8898C66.6438 23.3267 67.4226 23.5565 68.2175 23.5501H80.4709C80.9978 23.553 81.5201 23.4521 82.008 23.2531C82.4959 23.0542 82.9398 22.7611 83.3144 22.3905C83.689 22.0199 83.9869 21.5792 84.1912 21.0935C84.3954 20.6078 84.5019 20.0866 84.5047 19.5597V7.43938C84.502 6.9125 84.3954 6.39133 84.1911 5.90566C83.9868 5.41999 83.6888 4.97935 83.3141 4.60894C82.9397 4.23826 82.4958 3.94503 82.008 3.74601C81.5201 3.54699 80.9978 3.44608 80.4709 3.44905ZM80.4411 19.5299H68.2474V7.46925H80.4356L80.4411 19.5299ZM123.389 3.44905H111.437C110.91 3.44612 110.388 3.54702 109.9 3.74598C109.412 3.94494 108.968 4.23806 108.594 4.60861C108.219 4.97916 107.921 5.41988 107.717 5.90559C107.513 6.3913 107.406 6.91248 107.404 7.43938V23.5501H111.478V16.9466H123.376V23.5501H127.45V7.43938C127.448 6.91016 127.34 6.3867 127.134 5.89917C126.928 5.41164 126.628 4.96968 126.25 4.59876C125.873 4.22783 125.426 3.93528 124.935 3.73796C124.444 3.54064 123.918 3.44245 123.389 3.44905ZM123.359 12.9264H111.462V7.46925H123.359V12.9264ZM170.966 3.44905H159.014C158.487 3.44612 157.965 3.54702 157.477 3.74598C156.989 3.94494 156.545 4.23806 156.171 4.60861C155.796 4.97916 155.498 5.41988 155.294 5.90559C155.09 6.3913 154.983 6.91248 154.98 7.43938V23.5501H159.055V16.9466H170.925V23.5501H175V7.43938C174.997 6.9125 174.891 6.39133 174.686 5.90566C174.482 5.41999 174.184 4.97935 173.809 4.60894C173.053 3.8606 172.03 3.44338 170.966 3.44905ZM170.925 12.9264H159.028V7.46925H170.925V12.9264ZM147.293 19.5299H145.663L139.837 5.13319C139.637 4.63645 139.294 4.21071 138.85 3.91062C138.407 3.61054 137.884 3.4498 137.349 3.44905H133.733C133.204 3.4462 132.686 3.60045 132.244 3.89227C131.803 4.18409 131.458 4.60036 131.253 5.08837C131.117 5.41228 131.046 5.75978 131.044 6.11108V23.5501H135.118V7.46925H136.748L142.572 21.8659C142.775 22.3618 143.121 22.7858 143.566 23.0839C144.011 23.3819 144.535 23.5405 145.071 23.5392H148.687C149.038 23.5411 149.386 23.4737 149.712 23.3408C150.037 23.208 150.333 23.0123 150.583 22.765C151.087 22.2658 151.372 21.5867 151.376 20.8772V3.44905H147.293V19.5299ZM92.1784 3.44905H88.1039V19.5597C88.1066 20.0878 88.2136 20.61 88.4187 21.0966C88.6238 21.5832 88.923 22.0244 89.2991 22.3951C89.6751 22.7657 90.1206 23.0586 90.6101 23.2568C91.0995 23.455 91.6232 23.5546 92.1512 23.5501H104.375V19.5299H92.1784V3.44905Z" fill="white"/>
<defs>
<linearGradient id="paint0_linear_679_330" x1="2.4607" y1="27.1606" x2="26.3863" y2="0.187212" gradientUnits="userSpaceOnUse">
<stop stop-color="#D6314D"/>
<stop offset="0.489583" stop-color="#F18948"/>
<stop offset="0.97" stop-color="#F1F400"/>
</linearGradient>
</defs>
</svg>
